<?xml version="1.0" encoding="utf-8"?>
<!-- Generator: Adobe Illustrator 22.0.1, SVG Export Plug-In . SVG Version: 6.00 Build 0)  -->
<svg version="1.1" id="Ebene_1" xmlns="http://www.w3.org/2000/svg" xmlns:xlink="http://www.w3.org/1999/xlink" x="0px" y="0px"
	 viewBox="0 0 128 128" style="enable-background:new 0 0 128 128;" xml:space="preserve">
<style type="text/css">
	.st0{fill:#5B5B5B;}
	.st1{fill:none;}
	.st2{fill:#FFD306;}
	.st3{font-family:'ArialMT';}
	.st4{font-size:21px;}
	.st5{fill:#9B5C8F;}
	.st6{fill:#FFFFFF;}
</style>
<g id="Ebene_2_1_">
	<rect class="st0" width="128" height="128"/>
</g>
<g id="Ebene_1_1_">
	<rect x="6.1" y="14.6" class="st1" width="77.8" height="19.8"/>
	<text transform="matrix(1 0 0 1 6.0975 29.4749)" class="st2 st3 st4">Afterbuy</text>
	<g>
		<path class="st5" d="M67.5,62.2h32.7c2.1,0,3.7,1.9,3.7,4.2v14.1c0,2.3-1.7,4.2-3.7,4.2H88.5l1.6,4.4L83,84.7H67.6
			c-2.1,0-3.7-1.9-3.7-4.2V66.4C63.8,64.1,65.5,62.2,67.5,62.2L67.5,62.2z"/>
		<path class="st6" d="M66.1,66c0.2-0.3,0.6-0.5,1-0.6c0.8-0.1,1.3,0.4,1.4,1.3c0.5,3.8,1.1,7.1,1.6,9.8l3.6-7.7
			c0.3-0.7,0.7-1.1,1.2-1.1c0.7-0.1,1.2,0.5,1.3,1.5c0.4,2.4,0.9,4.5,1.5,6.3c0.4-4.7,1.1-8,2.2-10.1c0.2-0.5,0.6-0.8,1.1-0.8
			c0.4,0,0.7,0.1,1,0.4s0.5,0.6,0.5,1c0,0.3,0,0.6-0.2,0.9c-0.6,1.3-1.2,3.5-1.6,6.6c-0.4,3-0.6,5.3-0.5,7c0,0.5,0,0.9-0.2,1.2
			c-0.2,0.4-0.5,0.6-0.9,0.7c-0.4,0-0.9-0.2-1.3-0.7c-1.5-1.7-2.7-4.4-3.6-7.8c-1.1,2.4-1.8,4.1-2.3,5.3c-1,2.1-1.8,3.1-2.5,3.2
			c-0.4,0-0.8-0.4-1.1-1.3c-0.8-2.4-1.7-7.1-2.7-14C65.8,66.8,65.9,66.4,66.1,66z M101.2,68.9c-0.6-1.2-1.5-1.9-2.6-2.1
			c-0.3-0.1-0.6-0.1-0.9-0.1c-1.6,0-2.8,0.9-3.8,2.8c-0.8,1.6-1.3,3.3-1.3,5.2c0,1.4,0.3,2.6,0.8,3.6c0.6,1.2,1.5,1.9,2.6,2.1
			c0.3,0.1,0.6,0.1,0.9,0.1c1.6,0,2.9-0.9,3.8-2.8c0.8-1.6,1.3-3.3,1.3-5.2C102,71.1,101.7,69.9,101.2,68.9z M99.1,74
			c-0.2,1.2-0.6,2.1-1.2,2.7c-0.5,0.5-0.9,0.7-1.3,0.6s-0.7-0.5-1-1.2c-0.2-0.6-0.3-1.1-0.3-1.7c0-0.5,0-0.9,0.1-1.3
			c0.1-0.8,0.4-1.5,0.9-2.2c0.5-0.9,1.1-1.3,1.7-1.1c0.4,0.1,0.7,0.5,1,1.2c0.2,0.6,0.3,1.1,0.3,1.7C99.2,73.1,99.2,73.6,99.1,74z
			 M90.9,68.9c-0.6-1.2-1.5-1.9-2.6-2.1c-0.3-0.1-0.6-0.1-0.9-0.1c-1.6,0-2.8,0.9-3.8,2.8c-0.8,1.6-1.3,3.3-1.3,5.2
			c0,1.4,0.3,2.6,0.8,3.6c0.6,1.2,1.5,1.9,2.6,2.1c0.3,0.1,0.6,0.1,0.9,0.1c1.6,0,2.9-0.9,3.8-2.8c0.8-1.6,1.3-3.3,1.3-5.2
			C91.7,71.1,91.5,69.9,90.9,68.9z M88.9,74c-0.2,1.2-0.6,2.1-1.2,2.7c-0.5,0.5-0.9,0.7-1.3,0.6s-0.7-0.5-1-1.2
			c-0.2-0.6-0.3-1.1-0.3-1.7c0-0.5,0-0.9,0.1-1.3c0.1-0.8,0.4-1.5,0.9-2.2c0.5-0.9,1.1-1.3,1.7-1.1c0.4,0.1,0.7,0.5,1,1.2
			c0.2,0.6,0.3,1.1,0.3,1.7C89,73.1,89,73.6,88.9,74L88.9,74L88.9,74z"/>
	</g>
	<rect x="51" y="39.7" class="st1" width="12.8" height="15.5"/>
	<text transform="matrix(1 0 0 1 51.0462 54.5952)" class="st6 st3 st4">+</text>
	<rect x="4.1" y="103.6" class="st1" width="113.9" height="17.4"/>
	<text transform="matrix(1 0 0 1 4.0977 118.5047)" class="st6 st3 st4">Order Export</text>
</g>
</svg>
